P2
7 24
15
15  12  7   5   3   1   0   
15  12  7   5   3   1   0   
15  12  7   5   3   1   0   
15  12  7   5   3   1   0   
15  12  7   5   3   1   0   
15  12  7   5   3   1   0   
15  12  7   5   3   1   0   
15  12  7   5   3   1   0   
15  12  7   5   3   1   0   
15  12  7   5   3   1   0   
15  12  7   5   3   1   0   
15  12  7   5   3   1   0   
15  12  7   5   3   1   0   
15  12  7   5   3   1   0   
15  12  7   5   3   1   0   
15  12  7   5   3   1   0   
15  12  7   5   3   1   0   
15  12  7   5   3   1   0   
15  12  7   5   3   1   0   
15  12  7   5   3   1   0   
15  12  7   5   3   1   0   
15  12  7   5   3   1   0   
15  12  7   5   3   1   0   
15  12  7   5   3   1   0   
