P3
15 15
200
0 0 0 0 0 0 0 0 0 0 0 0 0 0 0 200 200 200 200 200 200 200 200 200 200 200 200 200 200 200 200 200 200 0 0 0 0 0 0 0 0 0 0 0 0 
0 0 0 0 0 0 0 0 0 0 0 0 200 200 200 200 200 200 0 0 189 0 0 189 0 0 189 0 0 189 0 0 189 200 200 200 200 200 200 0 0 0 0 0 0 
0 0 0 0 0 0 0 0 0 200 200 200 0 0 189 0 0 189 0 0 189 200 200 200 200 200 200 200 200 200 0 0 189 0 0 189 200 200 200 200 200 200 0 0 0 
0 0 0 0 0 0 200 200 200 0 0 189 0 0 189 0 0 189 200 200 200 0 0 189 0 0 189 0 0 189 200 200 200 0 0 189 0 0 189 200 200 200 0 0 0 
0 0 0 0 0 0 200 200 200 0 0 189 0 0 189 200 200 200 0 0 189 0 0 189 0 0 189 0 0 189 0 0 189 200 200 200 0 0 189 0 0 189 200 200 200 
0 0 0 0 0 0 200 200 200 0 0 189 0 0 189 0 0 189 200 200 200 0 0 189 0 0 189 0 0 189 0 0 189 0 0 189 0 0 189 0 0 189 200 200 200 
0 0 0 0 0 0 0 0 0 200 200 200 0 0 189 0 0 189 0 0 189 0 0 189 200 200 200 200 200 200 200 200 200 0 0 189 0 0 189 0 0 189 200 200 200 
0 0 0 0 0 0 0 0 0 200 200 200 0 0 189 0 0 189 0 0 189 200 200 200 0 0 0 0 0 0 0 0 0 200 200 200 200 200 200 0 0 189 200 200 200 
0 0 0 200 200 200 200 200 200 200 200 200 0 0 189 0 0 189 0 0 189 200 200 200 200 200 200 0 0 0 0 0 0 0 0 0 0 0 0 200 200 200 200 200 200 
200 200 200 200 200 200 0 49 189 0 0 189 0 0 189 0 0 189 0 0 189 0 0 189 200 200 200 200 200 200 0 0 0 0 0 0 0 0 0 0 0 0 0 0 0 
200 200 200 0 49 189 0 49 189 0 0 189 0 0 189 0 0 189 0 0 189 0 0 189 0 0 189 200 200 200 0 0 0 0 0 0 0 0 0 0 0 0 0 0 0 
200 200 200 200 200 200 200 200 200 0 0 189 200 200 189 0 0 200 0 0 189 0 0 189 0 0 189 200 200 200 0 0 0 0 0 0 0 0 0 0 0 0 0 0 0 
0 0 0 0 0 0 200 200 200 0 0 189 0 0 189 0 0 189 0 0 189 0 0 189 0 0 189 200 200 200 0 0 0 0 0 0 122 82 43 0 0 0 0 0 0 
0 0 0 0 0 0 0 0 0 200 200 200 0 0 189 0 0 189 0 0 189 0 0 189 200 200 200 0 0 0 0 0 0 0 0 0 0 0 0 0 0 0 0 0 0 
0 0 0 0 0 0 0 0 0 0 0 0 200 200 200 200 200 200 200 200 200 200 200 200 0 0 0 0 0 0 0 0 0 0 0 0 0 0 0 0 0 0 0 0 0 
